<?xml version="1.0" encoding="UTF-8" standalone="no"?>
<svg
   width="35"
   height="35"
   viewBox="0 0 35 35"
   fill="none"
   version="1.1"
   id="svg25"
   sodipodi:docname="logo-icon.svg"
   inkscape:version="1.2.2 (732a01da63, 2022-12-09)"
   xmlns:inkscape="http://www.inkscape.org/namespaces/inkscape"
   xmlns:sodipodi="http://sodipodi.sourceforge.net/DTD/sodipodi-0.dtd"
   xmlns="http://www.w3.org/2000/svg"
   xmlns:svg="http://www.w3.org/2000/svg">
  <sodipodi:namedview
     id="namedview27"
     pagecolor="#ffffff"
     bordercolor="#666666"
     borderopacity="1.0"
     inkscape:showpageshadow="2"
     inkscape:pageopacity="0.0"
     inkscape:pagecheckerboard="0"
     inkscape:deskcolor="#d1d1d1"
     showgrid="false"
     inkscape:zoom="22.171429"
     inkscape:cx="10.847294"
     inkscape:cy="17.5"
     inkscape:window-width="2880"
     inkscape:window-height="1694"
     inkscape:window-x="2869"
     inkscape:window-y="-11"
     inkscape:window-maximized="1"
     inkscape:current-layer="svg25" />
  <defs
     id="defs23">
    <linearGradient
       id="paint0_linear_27_452"
       x1="18.0295"
       y1="18.8241"
       x2="18.0295"
       y2="1.57081e-05"
       gradientUnits="userSpaceOnUse">
      <stop
         stop-color="#3761EE"
         id="stop8" />
      <stop
         offset="1"
         stop-color="#6EE2F5"
         id="stop10" />
    </linearGradient>
    <linearGradient
       id="paint1_linear_27_452"
       x1="18.6998"
       y1="20.0372"
       x2="33.0154"
       y2="32.0494"
       gradientUnits="userSpaceOnUse">
      <stop
         stop-color="#3761EE"
         id="stop13" />
      <stop
         offset="1"
         stop-color="#6EE2F5"
         id="stop15" />
    </linearGradient>
    <linearGradient
       id="paint2_linear_27_452"
       x1="5.47853e-06"
       y1="22.2373"
       x2="16.7337"
       y2="22.2373"
       gradientUnits="userSpaceOnUse">
      <stop
         stop-color="#6EE2F5"
         id="stop18" />
      <stop
         offset="1"
         stop-color="#3761EE"
         id="stop20" />
    </linearGradient>
  </defs>
  <g
     id="g2593"
     transform="matrix(0.58071197,0,0,0.58071701,202.67306,-292.05609)"
     inkscape:export-filename="favicon-720.png"
     inkscape:export-xdpi="303.43292"
     inkscape:export-ydpi="303.43292"
     style="stroke-width:6.50838">
    <path
       d="m -312.25288,522.53316 v 5.17596 h -5.62892 v 15.42168 c -0.009,2.06233 0.21378,3.6703 0.66992,4.82423 0.45614,1.15394 1.20509,2.0768 2.24579,2.76648 l 3.79765,2.58304 -3.11785,6.62164 c -1.46615,-0.78105 -2.7746,-1.58221 -3.93277,-2.4003 v 5.66773 h 26.62661 v -40.66046 z m -33.31104,-19.60986 v 22.3326 h 16.63135 v -5.25286 h 4.00015 v -10.50608 l 5.56613,-1.87924 v -4.69442 z"
       style="fill:#c2c7fe;fill-opacity:1;fill-rule:nonzero;stroke:none;stroke-width:2.29603;stroke-opacity:1"
       id="path1563-9-1-4" />
    <g
       id="g1565-76-7-7"
       transform="matrix(0.35277777,0,0,-0.35277777,-341.14192,527.86798)"
       style="fill:#261f28;fill-opacity:1;stroke:none;stroke-width:6.50838;stroke-opacity:1">
      <path
         d="m 0,0 v -90.709 h 57.663 v 12.213 c -1.627,1.529 -3.083,3.074 -4.358,4.644 -4.944,6.094 -7.405,14.742 -7.376,25.929 V 0 Z M 67.308,56.597 V 22.568 h 14.563 v -0.109 h 44.302 v 34.138 z m -5.67,13.798 V 57.062 l 0.069,0.026 v 13.305 h -0.069 z"
         style="fill:#261f28;fill-opacity:1;fill-rule:nonzero;stroke:none;stroke-width:6.50838;stroke-opacity:1"
         id="path1567-9-2-0" />
    </g>
  </g>
</svg>
